# Blender v2.79 (sub 0) OBJ File: ''
# www.blender.org
mtllib Enemy Base.mtl
o Enemy_Base
v 0.550093 0.000000 0.000000
v 0.399407 0.232402 -0.107021
v 0.413497 0.232402 0.000000
v 0.531349 0.000000 -0.142375
v 0.358099 0.232402 -0.206748
v 0.476395 0.000000 -0.275047
v 0.292387 0.232402 -0.292387
v 0.388975 0.000000 -0.388975
v 0.206748 0.232402 -0.358099
v 0.275047 0.000000 -0.476395
v 0.107021 0.232402 -0.399407
v 0.142375 0.000000 -0.531349
v 0.000000 0.232402 -0.413497
v 0.000000 0.000000 -0.550093
v -0.107021 0.232402 -0.399407
v -0.142375 0.000000 -0.531349
v -0.206748 0.232402 -0.358099
v -0.275047 0.000000 -0.476395
v -0.292386 0.232402 -0.292387
v -0.388975 0.000000 -0.388975
v -0.358099 0.232402 -0.206749
v -0.476395 0.000000 -0.275047
v -0.399407 0.232402 -0.107021
v -0.531349 0.000000 -0.142375
v -0.413497 0.232402 0.000000
v -0.550093 0.000000 0.000000
v -0.399407 0.232402 0.107021
v -0.531349 -0.000000 0.142374
v -0.358099 0.232402 0.206748
v -0.476395 -0.000000 0.275046
v -0.292387 0.232402 0.292386
v -0.388975 -0.000000 0.388975
v -0.206749 0.232402 0.358099
v -0.275047 -0.000000 0.476395
v -0.107021 0.232402 0.399407
v -0.142375 -0.000000 0.531349
v 0.000000 0.232402 0.413497
v 0.000000 -0.000000 0.550093
v 0.107021 0.232402 0.399407
v 0.142374 -0.000000 0.531349
v 0.206748 0.232402 0.358099
v 0.275046 -0.000000 0.476395
v 0.292386 0.232402 0.292387
v 0.388975 -0.000000 0.388975
v 0.358099 0.232402 0.206749
v 0.476395 -0.000000 0.275047
v 0.399407 0.232402 0.107021
v 0.531349 -0.000000 0.142375
v 0.393612 0.244319 0.000000
v 0.380200 0.244319 -0.101874
v 0.340878 0.244319 -0.196806
v 0.278326 0.244319 -0.278326
v 0.196806 0.244319 -0.340878
v 0.101874 0.244319 -0.380200
v 0.000000 0.244319 -0.393612
v -0.101874 0.244319 -0.380200
v -0.196806 0.244319 -0.340878
v -0.278326 0.244319 -0.278326
v -0.340878 0.244319 -0.196806
v -0.380200 0.244319 -0.101874
v -0.393612 0.244319 0.000000
v -0.380200 0.244319 0.101874
v -0.340878 0.244319 0.196806
v -0.278326 0.244319 0.278325
v -0.196806 0.244319 0.340878
v -0.101874 0.244319 0.380200
v 0.000000 0.244319 0.393612
v 0.101874 0.244319 0.380200
v 0.196806 0.244319 0.340878
v 0.278325 0.244319 0.278326
v 0.340878 0.244319 0.196806
v 0.380200 0.244319 0.101875
vt 0.250000 -0.020434
vt 0.250000 0.184888
vt 0.208333 0.184888
vt 0.208333 -0.020434
vt 0.333333 -0.020434
vt 0.333333 0.184888
vt 0.291667 0.184888
vt 0.291667 -0.020434
vt 0.166667 -0.020434
vt 0.166667 0.184888
vt 0.125000 0.184888
vt 0.125000 -0.020434
vt 0.625000 -0.020434
vt 0.625000 0.184888
vt 0.583333 0.184888
vt 0.583333 -0.020434
vt 0.541667 0.184888
vt 0.541667 -0.020434
vt 0.750000 -0.020434
vt 0.750000 0.184888
vt 0.708333 0.184888
vt 0.708333 -0.020434
vt 0.666667 -0.020434
vt 0.666667 0.184888
vt 0.916667 -0.020434
vt 0.916667 0.184888
vt 0.875000 0.184888
vt 0.875000 -0.020434
vt 0.083333 -0.020434
vt 0.083333 0.184888
vt 0.041667 0.184888
vt 0.041667 -0.020434
vt 1.000000 -0.020434
vt 1.000000 0.184888
vt 0.958333 0.184888
vt 0.958333 -0.020434
vt 0.833333 -0.020434
vt 0.833333 0.184888
vt 0.791667 0.184888
vt 0.791667 -0.020434
vt 0.416667 -0.020434
vt 0.416667 0.184888
vt 0.375000 0.184888
vt 0.375000 -0.020434
vt 0.500000 0.184888
vt 0.500000 -0.020434
vt 0.458333 0.184888
vt 0.458333 -0.020434
vt 0.000000 0.184888
vt 0.000000 -0.020434
vt 0.007135 0.326129
vt 0.010978 0.296936
vt 0.022246 0.269732
vt 0.010978 0.355322
vt 0.022246 0.382526
vt 0.040171 0.246372
vt 0.063532 0.228447
vt 0.040171 0.405886
vt 0.176325 0.423812
vt 0.199686 0.246372
vt 0.217611 0.269732
vt 0.199686 0.405887
vt 0.090735 0.217179
vt 0.063532 0.423812
vt 0.119929 0.213335
vt 0.090735 0.435080
vt 0.119928 0.438923
vt 0.149122 0.217179
vt 0.176325 0.228447
vt 0.149122 0.435080
vt 0.228879 0.296936
vt 0.217611 0.382526
vt 0.232722 0.326129
vt 0.228879 0.355323
vt 0.166667 0.195712
vt 0.125000 0.195712
vt 0.583333 0.195712
vt 0.541667 0.195712
vt 0.625000 0.195712
vt 0.083333 0.195712
vt 0.833333 0.195712
vt 0.791667 0.195712
vt 0.750000 0.195712
vt 0.708333 0.195712
vt 0.916667 0.195712
vt 0.875000 0.195712
vt 0.458333 0.195712
vt 0.416667 0.195712
vt 0.958333 0.195712
vt 0.666667 0.195712
vt 0.250000 0.195712
vt 0.208333 0.195712
vt 0.041667 0.195712
vt 0.000000 0.195712
vt 1.000000 0.195712
vt 0.500000 0.195712
vt 0.291667 0.195712
vt 0.333333 0.195712
vt 0.375000 0.195712
vt 1.013590 0.599140
vt 0.999472 0.706409
vt 0.958068 0.806367
vt 0.999472 0.491871
vt 0.892204 0.892204
vt 0.958068 0.391912
vt 0.306076 0.306076
vt 0.240211 0.806367
vt 0.198807 0.706409
vt 0.240211 0.391912
vt 0.892204 0.306076
vt 0.806367 0.958068
vt 0.706409 0.999472
vt 0.806367 0.240211
vt 0.491871 0.198807
vt 0.391912 0.958068
vt 0.306076 0.892204
vt 0.391912 0.240211
vt 0.599140 1.013590
vt 0.706408 0.198807
vt 0.599140 0.184685
vt 0.491871 0.999472
vt 0.184685 0.599140
vt 0.198807 0.491871
vn 0.0000 0.5067 -0.8621
vn 0.2231 0.5067 -0.8327
vn -0.4311 0.5067 -0.7466
vn -0.2231 0.5067 -0.8327
vn 0.4311 0.5067 -0.7466
vn 0.6096 0.5067 -0.6096
vn -0.6096 0.5067 0.6096
vn -0.7466 0.5067 0.4311
vn -0.8327 0.5067 0.2231
vn 0.0000 0.5067 0.8621
vn -0.2231 0.5067 0.8327
vn -0.4311 0.5067 0.7466
vn 0.7466 0.5067 0.4311
vn 0.6096 0.5067 0.6096
vn 0.7466 0.5067 -0.4311
vn 0.8327 0.5067 -0.2231
vn 0.8621 0.5067 0.0000
vn 0.8327 0.5067 0.2231
vn 0.4311 0.5067 0.7466
vn 0.2231 0.5067 0.8327
vn -0.7466 0.5067 -0.4311
vn -0.6096 0.5067 -0.6096
vn -0.8621 0.5067 0.0000
vn -0.8327 0.5067 -0.2231
vn 0.0000 -1.0000 -0.0000
vn 0.2570 0.8578 -0.4452
vn 0.3635 0.8578 -0.3635
vn -0.4452 0.8578 0.2570
vn -0.4965 0.8578 0.1330
vn -0.3635 0.8578 0.3635
vn 0.4452 0.8578 -0.2570
vn 0.2570 0.8578 0.4452
vn 0.1330 0.8578 0.4965
vn 0.0000 0.8578 0.5141
vn -0.1330 0.8578 0.4965
vn 0.4452 0.8578 0.2570
vn 0.3635 0.8578 0.3635
vn -0.4965 0.8578 -0.1330
vn -0.4452 0.8578 -0.2570
vn 0.4965 0.8578 0.1330
vn -0.2570 0.8578 0.4452
vn 0.0000 0.8578 -0.5141
vn 0.1330 0.8578 -0.4965
vn 0.4965 0.8578 -0.1330
vn 0.5141 0.8578 -0.0000
vn -0.5141 0.8578 0.0000
vn -0.1330 0.8578 -0.4965
vn -0.2570 0.8578 -0.4452
vn -0.3635 0.8578 -0.3635
vn 0.0000 1.0000 0.0000
usemtl Base
s 1
f 14/1/1 13/2/1 11/3/2 12/4/2
f 18/5/3 17/6/3 15/7/4 16/8/4
f 10/9/5 9/10/5 7/11/6 8/12/6
f 32/13/7 31/14/7 29/15/8 30/16/8
f 30/16/8 29/15/8 27/17/9 28/18/9
f 16/8/4 15/7/4 13/2/1 14/1/1
f 38/19/10 37/20/10 35/21/11 36/22/11
f 12/4/2 11/3/2 9/10/5 10/9/5
f 34/23/12 33/24/12 31/14/7 32/13/7
f 46/25/13 45/26/13 43/27/14 44/28/14
f 6/29/15 5/30/15 2/31/16 4/32/16
f 1/33/17 3/34/17 47/35/18 48/36/18
f 36/22/11 35/21/11 33/24/12 34/23/12
f 42/37/19 41/38/19 39/39/20 40/40/20
f 44/28/14 43/27/14 41/38/19 42/37/19
f 22/41/21 21/42/21 19/43/22 20/44/22
f 48/36/18 47/35/18 45/26/13 46/25/13
f 8/12/6 7/11/6 5/30/15 6/29/15
f 28/18/9 27/17/9 25/45/23 26/46/23
f 20/44/22 19/43/22 17/6/3 18/5/3
f 26/46/23 25/45/23 23/47/24 24/48/24
f 24/48/24 23/47/24 21/42/21 22/41/21
f 4/32/16 2/31/16 3/49/17 1/50/17
f 26/51/25 24/52/25 22/53/25 28/54/25
f 30/55/25 20/56/25 18/57/25 32/58/25
f 42/59/25 8/60/25 6/61/25 44/62/25
f 32/58/25 18/57/25 16/63/25 34/64/25
f 34/64/25 16/63/25 14/65/25 36/66/25
f 38/67/25 12/68/25 10/69/25 40/70/25
f 40/70/25 10/69/25 8/60/25 42/59/25
f 28/54/25 22/53/25 20/56/25 30/55/25
f 44/62/25 6/61/25 4/71/25 46/72/25
f 46/72/25 4/71/25 1/73/25 48/74/25
f 9/10/26 53/75/26 52/76/27 7/11/27
f 29/15/28 63/77/28 62/78/29 27/17/29
f 31/14/30 64/79/30 63/77/28 29/15/28
f 7/11/27 52/76/27 51/80/31 5/30/31
f 41/38/32 69/81/32 68/82/33 39/39/33
f 37/20/34 67/83/34 66/84/35 35/21/35
f 39/39/33 68/82/33 67/83/34 37/20/34
f 45/26/36 71/85/36 70/86/37 43/27/37
f 23/47/38 60/87/38 59/88/39 21/42/39
f 47/35/40 72/89/40 71/85/36 45/26/36
f 35/21/35 66/84/35 65/90/41 33/24/41
f 13/2/42 55/91/42 54/92/43 11/3/43
f 2/31/44 50/93/44 49/94/45 3/49/45
f 11/3/43 54/92/43 53/75/26 9/10/26
f 43/27/37 70/86/37 69/81/32 41/38/32
f 3/34/45 49/95/45 72/89/40 47/35/40
f 25/45/46 61/96/46 60/87/38 23/47/38
f 15/7/47 56/97/47 55/91/42 13/2/42
f 27/17/29 62/78/29 61/96/46 25/45/46
f 17/6/48 57/98/48 56/97/47 15/7/47
f 21/42/39 59/88/39 58/99/49 19/43/49
f 33/24/41 65/90/41 64/79/30 31/14/30
f 19/43/49 58/99/49 57/98/48 17/6/48
f 49/100/50 50/101/50 51/102/50 72/103/50
f 72/103/50 51/102/50 52/104/50 71/105/50
f 64/106/50 59/107/50 60/108/50 63/109/50
f 70/110/50 53/111/50 54/112/50 69/113/50
f 66/114/50 57/115/50 58/116/50 65/117/50
f 69/113/50 54/112/50 55/118/50 68/119/50
f 67/120/50 56/121/50 57/115/50 66/114/50
f 71/105/50 52/104/50 53/111/50 70/110/50
f 65/117/50 58/116/50 59/107/50 64/106/50
f 63/109/50 60/108/50 61/122/50 62/123/50
f 5/30/31 51/80/31 50/93/44 2/31/44
f 36/66/25 14/65/25 12/68/25 38/67/25
f 40/40/20 39/39/20 37/20/10 38/19/10
f 68/119/50 55/118/50 56/121/50 67/120/50
